# xmcd
#
# Track frame offsets:
#	150
#	16341
#	29499
#	42798
#	53849
#	71414
#	86282
#	99749
#	114006
#	125397
#	147200
#	161424
#	181922
#	197614
#	211434
#	226822
#
# Disc length: 3203 seconds
#
# Revision: 1
# Processed by: cddbd v1.4PL0 Copyright (c) Steve Scherf et al.
# Submitted via: audiograbber 1.82.02
#
DISCID=c80c8110
DTITLE=Diamond B Wranglers - Side by Side
DYEAR=2003
DGENRE=Western - Gospel
TTITLE0=Gypsy Cowboy Band
TTITLE1=In My Adobe Hacienda
TTITLE2=Streets of Laredo
TTITLE3=Beaumont Rag
TTITLE4=Moonlight in Vermont
TTITLE5=Cool Water
TTITLE6=Bad Brahmer Bull
TTITLE7=Goodnight, Little Sweetheart
TTITLE8=Amigo, My Friend
TTITLE9=It is No Secret - I'd Rather Have Jesus - Jesus Lover Me
TTITLE10=The Lighthouse
TTITLE11=He is the One
TTITLE12=It is Well with My Soul
TTITLE13=He Touched Me
TTITLE14=He Looked Beyond My Fault
TTITLE15=When the Saints Go Marching In
EXTD=Submitted by Craig Piguet
EXTT0=
EXTT1=
EXTT2=
EXTT3=
EXTT4=
EXTT5=
EXTT6=
EXTT7=
EXTT8=
EXTT9=
EXTT10=
EXTT11=
EXTT12=
EXTT13=
EXTT14=
EXTT15=
PLAYORDER=
